<svg width="193" height="47" viewBox="0 0 193 47" fill="none" xmlns="http://www.w3.org/2000/svg">
<path d="M176.624 20.6766H169.956C169.733 20.6766 169.513 20.7215 169.308 20.8086C169.103 20.8957 168.918 21.0234 168.762 21.1842C168.606 21.3449 168.484 21.5355 168.401 21.7447C168.319 21.954 168.279 22.1778 168.283 22.403C168.276 22.6275 168.314 22.8511 168.396 23.06C168.477 23.269 168.6 23.4587 168.757 23.6176C168.914 23.7764 169.101 23.9009 169.307 23.9835C169.513 24.066 169.734 24.1047 169.956 24.0973H173.9C174.068 24.0973 174.152 24.1932 174.152 24.385V30.7149C174.162 30.795 174.141 30.8757 174.094 30.9409C174.047 31.0061 173.978 31.051 173.9 31.0666C173.028 31.3207 172.125 31.4498 171.218 31.4502C170.241 31.4998 169.266 31.3351 168.358 30.9672C167.451 30.5994 166.632 30.0371 165.959 29.3189C164.575 27.5431 163.889 25.3109 164.034 23.053C164.034 20.261 164.686 18.1617 165.99 16.7551C166.757 16.0077 167.67 15.4317 168.67 15.0646C169.67 14.6974 170.735 14.5473 171.796 14.6238C173.038 14.6262 174.276 14.7656 175.488 15.0394C175.694 15.0942 175.909 15.0997 176.117 15.0553C176.326 15.0109 176.521 14.9179 176.687 14.7837C176.854 14.6625 176.99 14.5025 177.083 14.3171C177.177 14.1316 177.225 13.9262 177.223 13.7181V13.5156C177.243 12.9971 177.074 12.4894 176.75 12.0876C176.441 11.6785 175.99 11.4041 175.488 11.3204C174.121 11.0973 172.739 10.9903 171.355 11.0007C167.673 11.0007 164.791 12.0663 162.709 14.1976C160.626 16.3289 159.575 19.2593 159.553 22.9891C159.473 24.5937 159.71 26.1985 160.252 27.7086C160.794 29.2186 161.63 30.6032 162.709 31.7806C163.794 32.8534 165.085 33.6903 166.501 34.24C167.917 34.7897 169.429 35.0407 170.944 34.9775C172.897 34.9926 174.842 34.7235 176.719 34.1782C177.219 34.0329 177.653 33.7166 177.949 33.2831C178.261 32.8463 178.427 32.3197 178.423 31.7806V22.4989C178.414 22.0182 178.222 21.5594 177.887 21.2195C177.551 20.8795 177.098 20.6849 176.624 20.6766Z" fill="#00AEEF"/>
<path d="M52.0607 11.3416H50.7986C50.5627 11.34 50.329 11.3874 50.1119 11.4808C49.8948 11.5743 49.699 11.7119 49.5365 11.8851C49.3668 12.0485 49.2317 12.2453 49.1395 12.4633C49.0473 12.6813 48.9998 12.916 49 13.1532V32.8568C48.9984 33.0958 49.0452 33.3326 49.1374 33.5525C49.2297 33.7724 49.3655 33.9709 49.5365 34.1355C49.699 34.3088 49.8948 34.4464 50.1119 34.5398C50.329 34.6333 50.5627 34.6807 50.7986 34.679H52.0607C52.2966 34.6807 52.5303 34.6333 52.7474 34.5398C52.9645 34.4464 53.1604 34.3088 53.3229 34.1355C53.4938 33.9709 53.6296 33.7724 53.7219 33.5525C53.8142 33.3326 53.8609 33.0958 53.8593 32.8568V13.1532C53.8595 12.916 53.812 12.6813 53.7198 12.4633C53.6276 12.2453 53.4925 12.0485 53.3229 11.8851C53.1604 11.7119 52.9645 11.5743 52.7474 11.4808C52.5303 11.3874 52.2966 11.34 52.0607 11.3416Z" fill="#00AEEF"/>
<path d="M192.464 11.8851C192.301 11.7119 192.105 11.5743 191.888 11.4808C191.671 11.3874 191.437 11.34 191.201 11.3416H189.939C189.703 11.34 189.47 11.3874 189.253 11.4808C189.036 11.5743 188.84 11.7119 188.677 11.8851C188.506 12.0498 188.37 12.2482 188.278 12.4682C188.186 12.6881 188.139 12.9249 188.141 13.1639V32.8568C188.149 33.3375 188.341 33.7962 188.677 34.1362C189.012 34.4762 189.465 34.6708 189.939 34.679H191.201C191.676 34.6708 192.129 34.4762 192.464 34.1362C192.8 33.7962 192.992 33.3375 193 32.8568V13.1532C193 12.916 192.953 12.6813 192.861 12.4633C192.768 12.2453 192.633 12.0485 192.464 11.8851Z" fill="#00AEEF"/>
<path d="M70.3196 20.6128C68.3422 19.9521 67.3535 18.8545 67.3535 17.32C67.3345 16.9405 67.3982 16.5614 67.54 16.2097C67.6817 15.8579 67.8982 15.5421 68.1739 15.2846C68.8569 14.7492 69.7106 14.4874 70.572 14.5493C72.2241 14.5515 73.8614 14.8659 75.3997 15.4764C75.5708 15.542 75.7543 15.5675 75.9365 15.5509C76.1186 15.5343 76.2947 15.476 76.4515 15.3805C76.6187 15.2854 76.7571 15.1457 76.8516 14.9767C76.9461 14.8077 76.9933 14.6156 76.9879 14.4214V14.1231C76.9925 13.5839 76.8266 13.0573 76.5146 12.6205C76.2546 12.1821 75.8477 11.8531 75.3681 11.6934C73.7059 11.2171 71.9836 10.9909 70.2565 11.0221C68.314 10.8997 66.3945 11.5025 64.8608 12.7164C64.2207 13.2891 63.7155 14 63.3824 14.7967C63.0493 15.5934 62.8967 16.4556 62.936 17.32C62.9015 18.9557 63.502 20.5399 64.6084 21.7317C66.1636 23.2099 68.0465 24.288 70.0987 24.8753C71.053 25.1548 71.9287 25.6587 72.6545 26.3459C72.9081 26.6192 73.1056 26.9408 73.2356 27.292C73.3656 27.6432 73.4255 28.017 73.4118 28.3919C73.4118 30.4379 72.0761 31.4609 69.4045 31.4609C67.8801 31.4607 66.3773 31.0956 65.0186 30.3953C64.8587 30.3018 64.6773 30.2525 64.4927 30.2525C64.3081 30.2525 64.1267 30.3018 63.9668 30.3953C63.8072 30.4716 63.6738 30.5946 63.5838 30.7485C63.4938 30.9023 63.4514 31.0799 63.4619 31.2584V31.6421C63.4556 32.1923 63.5974 32.7339 63.8721 33.2086C64.1515 33.6652 64.5736 34.014 65.0712 34.1996C66.5565 34.7494 68.1283 35.0202 69.7095 34.9988C75.1578 34.9988 77.8819 32.761 77.8819 28.2853C77.9146 27.4541 77.7835 26.6245 77.4964 25.8451C77.2093 25.0657 76.7718 24.352 76.2096 23.7457C74.5202 22.2416 72.5009 21.1675 70.3196 20.6128Z" fill="#00AEEF"/>
<path d="M148.025 13.0681C147.862 12.5629 147.54 12.1253 147.11 11.8213C146.692 11.5026 146.182 11.3339 145.659 11.3417H144.523C144.001 11.3402 143.492 11.5082 143.071 11.8213C142.653 12.1378 142.335 12.5711 142.156 13.0681L135.625 32.9528C135.55 33.1474 135.526 33.3579 135.553 33.5648C135.581 33.7716 135.66 33.968 135.782 34.1356C135.897 34.3097 136.054 34.4511 136.238 34.5462C136.422 34.6414 136.628 34.6871 136.834 34.6791H137.886C138.399 34.6839 138.898 34.5151 139.306 34.1996C139.728 33.8872 140.03 33.4348 140.158 32.9208L140.452 31.8552L142.724 23.6924L144.996 15.2846H145.059L149.329 30.651L149.971 32.9208C150.115 33.4273 150.413 33.8748 150.823 34.1996C151.234 34.5088 151.731 34.6768 152.243 34.6791H153.379C153.585 34.6871 153.79 34.6414 153.974 34.5462C154.159 34.4511 154.316 34.3097 154.43 34.1356C154.556 33.9694 154.637 33.7728 154.664 33.5654C154.692 33.358 154.666 33.1468 154.588 32.9528L148.025 13.0681Z" fill="#00AEEF"/>
<path d="M126.065 11.3416H125.371C125.135 11.34 124.901 11.3874 124.684 11.4808C124.467 11.5743 124.271 11.7119 124.108 11.8851C123.939 12.0485 123.804 12.2453 123.711 12.4633C123.619 12.6813 123.572 12.916 123.572 13.1532V27.1983H123.509L115.715 12.9401C115.474 12.4415 115.096 12.0248 114.625 11.741C114.154 11.4571 113.612 11.3183 113.065 11.3416H112.371C112.135 11.34 111.901 11.3874 111.684 11.4808C111.467 11.5743 111.271 11.7119 111.108 11.8851C110.782 12.2241 110.601 12.6797 110.604 13.1532V32.8568C110.598 33.334 110.78 33.7939 111.108 34.1356C111.271 34.3088 111.467 34.4464 111.684 34.5398C111.901 34.6333 112.135 34.6807 112.371 34.679H113.065C113.539 34.6708 113.992 34.4762 114.327 34.1362C114.663 33.7963 114.855 33.3375 114.863 32.8568V18.8224H114.926L122.72 33.0806C122.961 33.5791 123.34 33.9958 123.81 34.2797C124.281 34.5636 124.823 34.7024 125.371 34.679H126.065C126.296 34.6821 126.526 34.6353 126.738 34.5416C126.95 34.4479 127.14 34.3095 127.295 34.1356C127.466 33.9709 127.602 33.7725 127.694 33.5525C127.787 33.3326 127.833 33.0958 127.832 32.8568V13.1532C127.833 12.9142 127.787 12.6775 127.694 12.4575C127.602 12.2376 127.466 12.0391 127.295 11.8745C127.139 11.7025 126.949 11.5661 126.736 11.4742C126.524 11.3824 126.295 11.3372 126.065 11.3416Z" fill="#00AEEF"/>
<path d="M103.209 32.9528L96.6777 13.0681C96.5142 12.5629 96.193 12.1253 95.7626 11.8213C95.3447 11.5026 94.8341 11.3339 94.3111 11.3417H93.1752C92.6532 11.3402 92.1445 11.5082 91.7237 11.8213C91.3055 12.1378 90.9874 12.5711 90.8087 13.0681L84.2771 32.9528C84.2027 33.1474 84.1782 33.3579 84.2057 33.5648C84.2333 33.7716 84.3121 33.968 84.4349 34.1356C84.5497 34.3097 84.7067 34.4511 84.8909 34.5462C85.075 34.6414 85.2801 34.6871 85.4867 34.6791H86.5384C87.0368 34.6745 87.5203 34.5062 87.9163 34.1996C88.3389 33.8872 88.6403 33.4348 88.7682 32.9208L89.5781 30.0223L91.587 22.7973L93.6906 15.3379H93.7537L95.973 23.3408L98.0765 30.715L98.6971 32.9528C98.8412 33.4593 99.1393 33.9068 99.549 34.2315C99.9597 34.5408 100.457 34.7088 100.969 34.7111H102.01C102.217 34.7191 102.422 34.6733 102.606 34.5782C102.79 34.4831 102.947 34.3417 103.062 34.1676C103.189 33.9955 103.269 33.793 103.294 33.58C103.32 33.3669 103.291 33.1508 103.209 32.9528Z" fill="#00AEEF"/>
<path d="M23.2313 6.59672V8.49172C23.2329 8.61592 23.274 8.73637 23.3487 8.83558C23.4235 8.93479 23.5279 9.00758 23.6468 9.04338C26.7631 10.0032 29.4843 11.9473 31.4023 14.5843C33.3203 17.2213 34.3317 20.4091 34.2849 23.6695C34.2381 26.9299 33.1356 30.0873 31.1427 32.6682C29.1497 35.249 26.3739 37.1143 23.2313 37.9842C22.5709 38.1695 21.8981 38.3072 21.2181 38.3961C21.1352 38.4073 21.0508 38.4007 20.9707 38.3767C20.8906 38.3527 20.8165 38.3119 20.7534 38.257C20.6903 38.202 20.6397 38.1342 20.6049 38.0582C20.5702 37.9821 20.552 37.8995 20.5518 37.8158V1.32727C20.5452 1.25088 20.5142 1.17862 20.4634 1.12113C20.4127 1.06365 20.3448 1.02397 20.2698 1.00792C20.1948 0.991884 20.1167 1.00033 20.0468 1.03202C19.977 1.06372 19.9192 1.11698 19.8819 1.18399C19.1655 2.86405 17.8078 4.95965 15.182 5.62594C7.27247 7.63915 1 14.9146 1 23.5371C0.999228 27.5174 2.31852 31.3856 4.75129 34.5359C7.18406 37.6863 10.5929 39.9409 14.4441 40.9467C14.5315 40.9698 14.6231 40.9725 14.7117 40.9545C14.8003 40.9365 14.8835 40.8982 14.9549 40.8428C15.0263 40.7873 15.084 40.7161 15.1234 40.6347C15.1628 40.5533 15.1828 40.4639 15.182 40.3735V38.5C15.1824 38.3758 15.1424 38.2549 15.0681 38.1554C14.9938 38.0559 14.8892 37.9833 14.7701 37.9483C11.6543 36.9878 8.93364 35.0433 7.01598 32.4064C5.09833 29.7694 4.0869 26.582 4.13331 23.3218C4.17971 20.0617 5.28143 16.9043 7.27336 14.323C9.26529 11.7417 12.0401 9.87545 15.182 9.00398C15.8425 8.81932 16.5153 8.68166 17.1952 8.59202C17.2783 8.58084 17.3628 8.58746 17.4431 8.61143C17.5234 8.63541 17.5977 8.67619 17.6611 8.73107C17.7244 8.78595 17.7754 8.85368 17.8106 8.92976C17.8457 9.00584 17.8643 9.08853 17.8651 9.17234V45.6609C17.8746 45.7354 17.9073 45.805 17.9585 45.8599C18.0097 45.9148 18.0769 45.9522 18.1506 45.9669C18.2242 45.9815 18.3006 45.9727 18.3689 45.9415C18.4373 45.9104 18.4941 45.8586 18.5314 45.7934C19.2478 44.1133 20.6055 42.0177 23.2313 41.3515C31.1408 39.3382 37.4169 32.0663 37.4169 23.4403C37.417 19.4602 36.0975 15.5923 33.6648 12.442C31.2322 9.29181 27.8237 7.03707 23.9728 6.03073C23.8858 6.00783 23.7947 6.00509 23.7065 6.02272C23.6183 6.04035 23.5352 6.07789 23.4637 6.13248C23.3922 6.18707 23.3341 6.25727 23.2938 6.33772C23.2535 6.41817 23.2321 6.50676 23.2313 6.59672V6.59672Z" fill="#00AEEF" stroke="#00AEEF"/>
<rect x="25" y="17" width="3" height="12" rx="1.5" fill="#00AEEF" stroke="#00AEEF"/>
<rect x="10" y="17" width="3" height="12" rx="1.5" fill="#00AEEF" stroke="#00AEEF"/>
</svg>
