<svg width="154" height="24" viewBox="0 0 154 24" fill="none" xmlns="http://www.w3.org/2000/svg">
<path fill-rule="evenodd" clip-rule="evenodd" d="M18.5381 3.69727C17.9854 3.98669 17.3174 3.87329 16.8799 3.41577L14.4609 0.88562C13.9004 0.298706 12.9902 0.298706 12.4297 0.88562L10.0107 3.41577C9.57324 3.87329 8.90527 3.98669 8.35254 3.69727L3.02441 0.910522C2.06934 0.410767 0.945312 1.13757 0.945312 2.25488V12.3124L0.949219 12.3866L0.953125 12.4299L0.962891 12.5104C0.97168 12.5699 0.983398 12.6287 0.999023 12.6864C1.06543 12.9314 1.19141 13.157 1.36621 13.3401L10.6016 23.0022C11.5068 23.9491 13.0547 23.2784 13.0547 21.9393V15.8364C13.0547 15.0782 12.4863 14.469 11.8623 14.0842C10.9395 13.516 10.3203 12.4662 10.3203 11.2651C10.3203 9.45959 11.7197 7.99597 13.4453 7.99597C15.1709 7.99597 16.5703 9.45959 16.5703 11.2651C16.5703 12.4662 15.9512 13.516 15.0283 14.0842C14.4043 14.469 13.8359 15.0782 13.8359 15.8364V21.9393C13.8359 23.2784 15.3838 23.9491 16.2891 23.0022L25.5244 13.3401C25.7939 13.0581 25.9453 12.6759 25.9453 12.2772V2.25488C25.9453 1.13757 24.8213 0.410767 23.8662 0.910522L18.5381 3.69727ZM22.8398 3.56433L20.3184 4.98169C19.9805 5.17163 19.8223 5.55237 19.873 5.91187C19.8994 6.09375 19.9795 6.27026 20.1172 6.41382L22.6387 9.05176C23.1816 9.61987 24.1104 9.21753 24.1104 8.41406V4.35876C24.1104 3.67676 23.4141 3.24146 22.8398 3.56433ZM6.56543 4.98169L4.04395 3.56433C3.46973 3.24146 2.77441 3.67676 2.77441 4.35876V8.41406C2.77441 9.21753 3.70215 9.61987 4.24609 9.05176L6.76758 6.41382C7.17578 5.98645 7.07422 5.26782 6.56543 4.98169Z" fill="url(#paint0_linear_4009_125549)"/>
<path d="M34.3457 0.687622H35.5449C35.5996 0.687256 35.6543 0.689697 35.709 0.694824L35.791 0.704346L35.8408 0.712402C35.9629 0.733887 36.083 0.769409 36.1982 0.818237C36.4043 0.906006 36.5908 1.03516 36.7451 1.19763C36.9062 1.35107 37.0352 1.53564 37.123 1.74023C37.1689 1.84766 37.2031 1.95935 37.2256 2.07349C37.2451 2.17676 37.2549 2.28198 37.2549 2.3877V20.8777C37.2568 21.1019 37.2129 21.3241 37.125 21.5305C37.0371 21.7369 36.9082 21.9231 36.7451 22.0776C36.7051 22.1193 36.6631 22.1587 36.6201 22.1958L36.5703 22.236L36.4951 22.2921C36.4023 22.3571 36.3027 22.4124 36.1982 22.457C36.1621 22.4724 36.125 22.4865 36.0879 22.4991L36.0127 22.5231L35.9609 22.5371L35.8877 22.5537L35.8281 22.5649C35.7344 22.5807 35.6396 22.5883 35.5449 22.5876H34.3457C34.1211 22.5892 33.8984 22.5448 33.6924 22.457C33.4863 22.3693 33.2998 22.2402 33.1455 22.0776C33.0547 21.9911 32.9736 21.8947 32.9053 21.7904L32.8408 21.6838C32.8135 21.6342 32.7881 21.583 32.7656 21.5305C32.6777 21.3241 32.6338 21.1019 32.6357 20.8777V2.3877C32.6348 2.16504 32.6807 1.94482 32.7676 1.74023C32.8555 1.53564 32.9844 1.35107 33.1455 1.19763C33.2998 1.03516 33.4863 0.906006 33.6924 0.818237C33.8984 0.730591 34.1211 0.686157 34.3457 0.687622Z" fill="url(#paint1_linear_4009_125549)"/>
<path d="M48.7363 9.70227C46.8555 9.08228 45.916 8.05225 45.916 6.61218C45.8975 6.2561 45.958 5.90039 46.0928 5.57031C46.1758 5.36597 46.2871 5.17456 46.4209 5.0011C46.5039 4.89429 46.5957 4.79431 46.6963 4.70227C47.3457 4.19983 48.1572 3.95422 48.9756 4.01221C50.5469 4.01428 52.1035 4.30933 53.5654 4.8822C53.7285 4.94385 53.9033 4.96765 54.0762 4.95215C54.249 4.93652 54.417 4.88184 54.5654 4.79224C54.6475 4.74634 54.7217 4.68945 54.7871 4.62341C54.8486 4.56091 54.9023 4.49036 54.9463 4.41333C55.0361 4.25464 55.0811 4.07446 55.0762 3.89221V3.61218C55.0801 3.1062 54.9229 2.61218 54.626 2.20227C54.5498 2.07617 54.4609 1.95972 54.3613 1.85449C54.2354 1.72144 54.0908 1.60645 53.9336 1.51282C53.8086 1.43884 53.6758 1.37805 53.5361 1.33228C51.9551 0.885254 50.3184 0.672974 48.6758 0.702271C46.8291 0.587402 45.0039 1.15308 43.5459 2.29224C43.4102 2.41248 43.2803 2.53906 43.1572 2.67163L43.0352 2.80884C42.9775 2.875 42.9219 2.94238 42.8682 3.01111C42.5723 3.38708 42.3281 3.80164 42.1406 4.24438C41.8232 4.99194 41.6787 5.80115 41.7158 6.61218C41.6826 8.14722 42.2539 9.63379 43.3057 10.7522C44.7842 12.1394 46.5752 13.151 48.5254 13.7023C49.4336 13.9646 50.2656 14.4374 50.9561 15.0823C51.1973 15.3387 51.3848 15.6405 51.5088 15.9701C51.6318 16.2997 51.6885 16.6505 51.6758 17.0022C51.6758 18.9222 50.4062 19.8822 47.8662 19.8822C46.416 19.882 44.9873 19.5393 43.6963 18.8822C43.5439 18.7944 43.3711 18.7483 43.1963 18.7483C43.0205 18.7483 42.8477 18.7944 42.6963 18.8822C42.5439 18.9539 42.417 19.0692 42.332 19.2136C42.2881 19.2874 42.2559 19.3668 42.2363 19.4492C42.2178 19.5283 42.2109 19.6102 42.2158 19.6923V20.0522C42.21 20.5686 42.3447 21.0768 42.6055 21.5222C42.8711 21.9507 43.2725 22.2781 43.7461 22.4523C45.1582 22.9681 46.6523 23.2223 48.1562 23.2023C53.3359 23.2023 55.9258 21.1022 55.9258 16.9022C55.957 16.1222 55.832 15.3438 55.5596 14.6123C55.2861 13.8809 54.8701 13.2112 54.3359 12.6422C52.7295 11.2307 50.8096 10.2228 48.7363 9.70227Z" fill="url(#paint2_linear_4009_125549)"/>
<path d="M73.3545 2.30786L79.5645 20.9679C79.6426 21.1537 79.6699 21.3566 79.6455 21.5564C79.6211 21.7563 79.5449 21.9463 79.4248 22.1079C79.3154 22.2712 79.166 22.4039 78.9912 22.4932C78.917 22.5312 78.8389 22.5609 78.7578 22.5818C78.6494 22.6099 78.5371 22.6222 78.4248 22.6179H77.4346C77.0967 22.6163 76.7646 22.5397 76.4629 22.3955C76.4043 22.3676 76.3467 22.3369 76.29 22.304C76.2432 22.2766 76.1982 22.2474 76.1533 22.2167L76.085 22.1678C75.6953 21.863 75.4121 21.4431 75.2744 20.9679L74.6846 18.8679L72.6846 11.9479L70.5742 4.43787H70.5146L68.5146 11.4379L66.6045 18.2179L65.835 20.9379C65.8066 21.0509 65.7686 21.1606 65.7227 21.2664C65.6582 21.4143 65.5771 21.5541 65.4824 21.6833C65.4062 21.7867 65.3193 21.8832 65.2256 21.9716C65.1621 22.0308 65.0947 22.0863 65.0244 22.1378C64.6484 22.4257 64.1885 22.5835 63.7148 22.5879H62.7148C62.6016 22.5922 62.4893 22.5798 62.3809 22.5515C62.3008 22.5306 62.2227 22.5011 62.1484 22.4631C61.9727 22.3739 61.8242 22.2412 61.7148 22.0779C61.5977 21.9205 61.5234 21.7362 61.4971 21.5421C61.4707 21.348 61.4941 21.1505 61.5645 20.9679L67.7744 2.30786C67.9443 1.84155 68.2471 1.43494 68.6445 1.13782C68.8467 0.98938 69.0703 0.875732 69.3066 0.799683C69.5371 0.725342 69.7793 0.687134 70.0244 0.687866H71.1045C71.6016 0.680542 72.0869 0.838867 72.4844 1.13782C72.8936 1.42322 73.1992 1.83386 73.3545 2.30786Z" fill="url(#paint3_linear_4009_125549)"/>
<path d="M98.8301 0.689941H98.1699C97.9854 0.688721 97.8018 0.718872 97.627 0.778809L97.5801 0.795654L97.5176 0.820557C97.3115 0.908325 97.125 1.03748 96.9707 1.19995C96.8877 1.27893 96.8135 1.36621 96.749 1.46021C96.7129 1.51208 96.6807 1.56604 96.6514 1.62183C96.6299 1.66125 96.6104 1.70154 96.5928 1.74255C96.5049 1.94714 96.46 2.16736 96.46 2.39001V15.5699H96.4004L88.9902 2.18994C88.7617 1.72217 88.4014 1.33105 87.9541 1.0647C87.5059 0.79834 86.9902 0.668091 86.4707 0.689941H85.8105C85.7568 0.689575 85.7031 0.691895 85.6504 0.696655C85.5977 0.701416 85.5459 0.70874 85.4941 0.718506C85.4238 0.731812 85.3555 0.749634 85.2871 0.771851C85.2432 0.786255 85.2002 0.80249 85.1572 0.820557C84.9512 0.908325 84.7646 1.03748 84.6104 1.19995C84.4873 1.32556 84.3867 1.46814 84.3096 1.62219C84.1914 1.85828 84.1289 2.12109 84.1299 2.39001V20.88C84.125 21.3278 84.2979 21.7594 84.6104 22.08C84.7646 22.2426 84.9512 22.3717 85.1572 22.4594C85.3643 22.5471 85.5859 22.5916 85.8105 22.59H86.4707C86.9219 22.5823 87.3516 22.3997 87.6709 22.0806C87.9902 21.7616 88.1729 21.3311 88.1807 20.88V7.70996H88.2402L95.6504 21.09C95.8789 21.5579 96.2393 21.9489 96.6865 22.2152C97.1348 22.4817 97.6504 22.6118 98.1699 22.59H98.8301C99.0508 22.5929 99.2686 22.549 99.4707 22.4611C99.6719 22.373 99.8525 22.2432 100 22.08C100.163 21.9254 100.292 21.7393 100.38 21.5328C100.468 21.3264 100.512 21.1042 100.511 20.88V2.39001C100.511 2.28748 100.502 2.18542 100.483 2.08508C100.462 1.96594 100.428 1.84924 100.38 1.73718C100.329 1.61743 100.264 1.50452 100.187 1.40051C100.131 1.32532 100.068 1.25488 100 1.18994C99.8516 1.02856 99.6709 0.900635 99.4688 0.814453C99.2676 0.728271 99.0498 0.685791 98.8301 0.689941Z" fill="url(#paint4_linear_4009_125549)"/>
<path d="M115.974 1.13782C116.383 1.42322 116.688 1.83386 116.844 2.30786L123.083 20.9679C123.157 21.1499 123.182 21.3481 123.155 21.5427C123.144 21.6294 123.122 21.714 123.091 21.7949L123.062 21.8667C123.026 21.9413 122.984 22.0121 122.934 22.0779C122.824 22.2412 122.675 22.3739 122.5 22.4631C122.394 22.5172 122.28 22.5542 122.164 22.5734C122.088 22.5859 122.011 22.5908 121.934 22.5879H120.854C120.367 22.5857 119.894 22.4281 119.503 22.1378C119.113 21.8331 118.83 21.4131 118.693 20.9379L118.083 18.8079L114.023 4.38782H113.963L111.804 12.2778L109.644 19.9379L109.363 20.9379C109.241 21.4202 108.955 21.8447 108.554 22.1378C108.166 22.434 107.69 22.5923 107.203 22.5879H106.203C106.007 22.5953 105.812 22.5525 105.637 22.4631C105.462 22.3739 105.312 22.2412 105.203 22.0779C105.087 21.9205 105.012 21.7362 104.985 21.5421C104.959 21.348 104.982 21.1505 105.054 20.9679L111.264 2.30786C111.434 1.84155 111.735 1.43494 112.133 1.13782C112.318 1.00159 112.522 0.894653 112.736 0.819214C112.984 0.732056 113.247 0.687134 113.514 0.687866H114.594C114.812 0.684692 115.029 0.713501 115.237 0.772339C115.501 0.847168 115.751 0.970459 115.974 1.13782Z" fill="url(#paint5_linear_4009_125549)"/>
<path d="M142.189 9.76831H135.85C135.639 9.76819 135.43 9.8103 135.234 9.89209C135.04 9.97388 134.863 10.0936 134.715 10.2445C134.632 10.3286 134.56 10.4215 134.497 10.5212C134.448 10.6003 134.406 10.6837 134.372 10.7706C134.332 10.8724 134.302 10.978 134.283 11.0854C134.266 11.1852 134.258 11.2866 134.26 11.3883C134.253 11.599 134.289 11.8088 134.367 12.0049C134.444 12.2009 134.562 12.379 134.71 12.5281C134.859 12.6771 135.037 12.7939 135.233 12.8715C135.365 12.9235 135.503 12.9569 135.643 12.9712C135.711 12.9781 135.78 12.9806 135.85 12.9783H139.6C139.677 12.9783 139.736 12.9994 139.776 13.0416C139.818 13.0865 139.84 13.1555 139.84 13.2483V19.1882C139.849 19.2634 139.829 19.3391 139.785 19.4004C139.74 19.4615 139.674 19.5037 139.6 19.5183C138.771 19.7567 137.912 19.8779 137.05 19.8783C136.652 19.8982 136.255 19.8812 135.863 19.8282C135.34 19.7576 134.825 19.6226 134.331 19.425C133.861 19.2371 133.416 18.995 133.005 18.7046C132.661 18.4618 132.342 18.1852 132.05 17.8783C130.734 16.2118 130.082 14.1171 130.22 11.9983C130.22 9.3783 130.84 7.40833 132.08 6.08826C132.809 5.38684 133.677 4.84644 134.628 4.50183C135.578 4.15735 136.591 4.01636 137.6 4.08826C138.309 4.0896 139.018 4.13745 139.72 4.23108C140.187 4.29333 140.65 4.37573 141.11 4.47827C141.306 4.52966 141.511 4.53479 141.708 4.49316C141.906 4.45142 142.092 4.36414 142.25 4.23828C142.324 4.18518 142.393 4.12402 142.453 4.05615C142.521 3.97888 142.58 3.89307 142.627 3.80042C142.684 3.68909 142.723 3.57007 142.742 3.44763C142.754 3.37866 142.76 3.30859 142.76 3.23828V3.04822C142.778 2.56177 142.618 2.08533 142.31 1.70825C142.016 1.32434 141.587 1.06689 141.11 0.988281C139.811 0.778931 138.496 0.678589 137.18 0.688232C133.68 0.688232 130.939 1.68823 128.96 3.68823C126.979 5.68823 125.979 8.43823 125.96 11.9382C125.883 13.4441 126.109 14.9501 126.624 16.3671C127.14 17.7841 127.934 19.0834 128.96 20.1882C129.992 21.1951 131.219 21.9803 132.565 22.4962C133.912 23.0121 135.35 23.2476 136.79 23.1882C138.646 23.2025 140.495 22.95 142.28 22.4382C142.755 22.3019 143.169 22.005 143.45 21.5983C143.747 21.1884 143.904 20.6942 143.9 20.1882V11.4783C143.893 11.0271 143.71 10.5967 143.391 10.2776C143.071 9.95862 142.641 9.776 142.189 9.76831Z" fill="url(#paint6_linear_4009_125549)"/>
<path d="M152.153 0.818237C152.359 0.906006 152.546 1.03516 152.7 1.19763C152.823 1.31482 152.928 1.4502 153.009 1.59863C153.034 1.64465 153.058 1.69189 153.078 1.74023C153.165 1.94482 153.211 2.16504 153.21 2.3877V20.8777C153.203 21.3287 153.021 21.7593 152.701 22.0782C152.382 22.3973 151.951 22.58 151.5 22.5876H150.301C150.062 22.5836 149.829 22.5306 149.615 22.4343C149.425 22.3485 149.25 22.2285 149.1 22.0782C148.78 21.7593 148.598 21.3287 148.591 20.8777V2.39771C148.59 2.25037 148.608 2.104 148.646 1.9624C148.666 1.88843 148.69 1.81567 148.721 1.74475C148.809 1.53845 148.938 1.35217 149.101 1.19763C149.255 1.03516 149.441 0.906006 149.647 0.818237C149.854 0.730591 150.076 0.686157 150.301 0.687622H151.5C151.725 0.686157 151.947 0.730591 152.153 0.818237Z" fill="url(#paint7_linear_4009_125549)"/>
<defs>
<linearGradient id="paint0_linear_4009_125549" x1="77.0776" y1="0.445435" x2="77.0776" y2="23.4455" gradientUnits="userSpaceOnUse">
<stop stop-color="#1D79FB"/>
<stop offset="1" stop-color="#2046DF"/>
</linearGradient>
<linearGradient id="paint1_linear_4009_125549" x1="77.0776" y1="0.445435" x2="77.0776" y2="23.4455" gradientUnits="userSpaceOnUse">
<stop stop-color="#1D79FB"/>
<stop offset="1" stop-color="#2046DF"/>
</linearGradient>
<linearGradient id="paint2_linear_4009_125549" x1="77.0776" y1="0.445435" x2="77.0776" y2="23.4455" gradientUnits="userSpaceOnUse">
<stop stop-color="#1D79FB"/>
<stop offset="1" stop-color="#2046DF"/>
</linearGradient>
<linearGradient id="paint3_linear_4009_125549" x1="77.0776" y1="0.445435" x2="77.0776" y2="23.4455" gradientUnits="userSpaceOnUse">
<stop stop-color="#1D79FB"/>
<stop offset="1" stop-color="#2046DF"/>
</linearGradient>
<linearGradient id="paint4_linear_4009_125549" x1="77.0776" y1="0.445435" x2="77.0776" y2="23.4455" gradientUnits="userSpaceOnUse">
<stop stop-color="#1D79FB"/>
<stop offset="1" stop-color="#2046DF"/>
</linearGradient>
<linearGradient id="paint5_linear_4009_125549" x1="77.0776" y1="0.445435" x2="77.0776" y2="23.4455" gradientUnits="userSpaceOnUse">
<stop stop-color="#1D79FB"/>
<stop offset="1" stop-color="#2046DF"/>
</linearGradient>
<linearGradient id="paint6_linear_4009_125549" x1="77.0776" y1="0.445435" x2="77.0776" y2="23.4455" gradientUnits="userSpaceOnUse">
<stop stop-color="#1D79FB"/>
<stop offset="1" stop-color="#2046DF"/>
</linearGradient>
<linearGradient id="paint7_linear_4009_125549" x1="77.0776" y1="0.445435" x2="77.0776" y2="23.4455" gradientUnits="userSpaceOnUse">
<stop stop-color="#1D79FB"/>
<stop offset="1" stop-color="#2046DF"/>
</linearGradient>
</defs>
</svg>
