<svg xmlns="http://www.w3.org/2000/svg" viewBox="0 0 101.66 101.66"><defs><style>.cls-1{fill:#00aeef;}</style></defs><title>Asset 2</title><g id="Layer_2" data-name="Layer 2"><g id="Layer_1-2" data-name="Layer 1"><path class="cls-1" d="M97.66,41.19,64,7.51A.65.65,0,0,0,62.87,8v9.51a.66.66,0,0,0,.19.46L91.9,46.78a5.72,5.72,0,0,1,0,8.1l-29,29-8,8,0,0V1.1a.68.68,0,0,0-.48-.64A13.71,13.71,0,0,0,46.82.6,13.57,13.57,0,0,0,41.19,4L4,41.19A13.62,13.62,0,0,0,4,60.47L37.68,94.15a.65.65,0,0,0,1.11-.46v-9.5a.66.66,0,0,0-.19-.46L9.75,54.88a5.74,5.74,0,0,1,0-8.1l29-29,8-8v90.84a.66.66,0,0,0,.48.64,13.71,13.71,0,0,0,7.54-.14,13.57,13.57,0,0,0,5.63-3.4l2.4-2.4L97.66,60.47A13.62,13.62,0,0,0,97.66,41.19Z"/><circle class="cls-1" cx="70.57" cy="50.83" r="5.66"/><circle class="cls-1" cx="30.94" cy="50.83" r="5.66"/><polygon class="cls-1" points="85.2 17.92 85.2 28.74 74.39 17.92 85.2 17.92"/><polygon class="cls-1" points="16.62 17.92 16.62 28.74 27.43 17.92 16.62 17.92"/><polygon class="cls-1" points="16.54 83.74 16.54 72.92 27.35 83.74 16.54 83.74"/><polygon class="cls-1" points="85.12 83.74 85.12 72.92 74.3 83.74 85.12 83.74"/></g></g></svg>